# xmcd CD database file
#
# Track frame offsets:
#	150
#	18251
#	27532
#	40342
#	57012
#	70791
#	93218
#	106825
#	117761
#	132804
#	149537
#	165422
#	178820
#	199340
#	220071
#	232331
#	246898
#	265923
#	283758
#
# Disc length: 3996 seconds
#
# Revision: 7
# Processed by: cddbd v1.5.2PL0 Copyright (c) Steve Scherf et al.
# Submitted via: CDex 2.23
#
DISCID=160f9a13
DTITLE=Various Artist - The Very Best of Smooth Jazz 1
DYEAR=2008
DGENRE=Jazz
TTITLE0=Amy Winehouse - Back To Black
TTITLE1=Bill Withers - Ain't No Sunshine
TTITLE2=Stevie Wonder - My Cherie Amour
TTITLE3=Roy Ayers - Everybody Loves The Sunshine
TTITLE4=Melody Gardot - Goodnite
TTITLE5=George Benson - Give Me The Night
TTITLE6=Nina Simone - My Baby Just Cares For Me
TTITLE7=Dusty Springfield - Son Of A Preacher Man
TTITLE8=Jamie Cullum - Everlasting Love
TTITLE9=Kool and The Gang - Cherish
TTITLE10=Ella Fitzgerald - Every Time We Say Goodbye
TTITLE11=Michael Bolton - Fly Me To The Moon
TTITLE12=Isley Brothers - Summer Breeze
TTITLE13=Incognito - Don't You Worry About A Thing
TTITLE14=Quincy Jones - Soul Bossa Nova
TTITLE15=Gabrielle - Walk On By
TTITLE16=Nayo - Smooth Operator
TTITLE17=Madeleine Peyroux - Smile
TTITLE18=Ray Charles and Natalie Cole - Fever
EXTD=YEAR: 2008
EXTT0=
EXTT1=
EXTT2=
EXTT3=
EXTT4=
EXTT5=
EXTT6=
EXTT7=
EXTT8=
EXTT9=
EXTT10=
EXTT11=
EXTT12=
EXTT13=
EXTT14=
EXTT15=
EXTT16=
EXTT17=
EXTT18=
PLAYORDER=
